<svg width="32" height="45" viewBox="0 0 32 45" fill="none" xmlns="http://www.w3.org/2000/svg">
<path d="M29.0958 0.884994C29.5756 2.72997 29.7559 4.60118 29.7476 6.50298C29.7472 6.61504 29.7469 6.7271 29.7467 6.83917C29.7437 7.93085 29.7185 9.00563 29.5321 10.0838C29.5197 10.1572 29.5074 10.2307 29.4951 10.3041C29.3365 11.2356 29.1334 12.1497 28.8534 13.0527C28.8405 13.0955 28.8275 13.1384 28.8142 13.1825C28.5152 14.1646 28.1167 15.1204 27.6399 16.0289C27.5918 16.1216 27.5456 16.2151 27.4996 16.3089C26.9384 17.4351 26.183 18.4733 25.3149 19.3799C25.2834 19.413 25.252 19.4462 25.2196 19.4803C23.1546 21.6478 20.6044 22.3144 17.7826 22.9692C14.9933 23.6167 12.1818 24.3725 9.56954 25.5681C9.40803 25.6419 9.24625 25.7037 9.07628 25.7558C9.10293 25.5568 9.14589 25.3958 9.23287 25.2153C9.25545 25.1681 9.27802 25.1209 9.30128 25.0723C9.326 25.0218 9.35073 24.9713 9.37621 24.9192C9.41509 24.8391 9.41509 24.8391 9.45474 24.7574C9.53797 24.5869 9.62203 24.4169 9.70644 24.247C9.73331 24.1928 9.76019 24.1386 9.78788 24.0828C10.3763 22.9041 11.0264 21.7674 11.7908 20.694C11.8163 20.658 11.8418 20.622 11.8681 20.5849C12.0506 20.3279 12.2353 20.0726 12.4209 19.8179C12.4493 19.779 12.4776 19.7401 12.5068 19.6999C12.9627 19.0741 13.4222 18.4528 13.914 17.8547C13.9839 17.7697 14.0535 17.6842 14.1226 17.5985C14.3835 17.2749 14.6533 16.96 14.9257 16.6462C15.0545 16.4976 15.1819 16.348 15.3089 16.1979C15.5913 15.8643 15.8831 15.5409 16.1806 15.2209C16.2905 15.1022 16.3991 14.9824 16.5079 14.8626C17.4252 13.8576 17.4252 13.8576 17.8439 13.4512C17.9265 13.3658 18.0018 13.2797 18.0781 13.1889C18.3706 12.8525 18.691 12.542 19.0056 12.2266C19.0759 12.156 19.1462 12.0853 19.2165 12.0147C19.3634 11.8671 19.5104 11.7197 19.6574 11.5723C19.845 11.3841 20.0325 11.1958 20.2198 11.0074C20.3648 10.8616 20.51 10.7159 20.6551 10.5703C20.7242 10.5009 20.7933 10.4315 20.8624 10.3621C21.5008 9.7202 21.5008 9.7202 21.7997 9.46546C21.8973 9.38175 21.9878 9.29208 22.0778 9.20009C22.1119 9.1654 22.1461 9.1307 22.1813 9.09496C22.2156 9.05989 22.2499 9.02481 22.2853 8.98868C22.5142 8.75465 22.7457 8.52931 22.9934 8.31535C23.1352 8.19002 23.2677 8.05615 23.4002 7.92097C23.4262 7.89465 23.4522 7.86833 23.479 7.84121C23.5417 7.77767 23.6042 7.71397 23.6668 7.65023C22.6046 8.32208 21.5776 9.04781 20.5645 9.79175C20.526 9.81999 20.4875 9.84823 20.4478 9.87733C19.994 10.2106 19.5425 10.5463 19.0989 10.8931C19.0005 10.9699 18.9017 11.0461 18.803 11.1224C18.4122 11.4249 18.0275 11.7319 17.6531 12.0546C17.5192 12.1693 17.3837 12.2813 17.2471 12.3926C16.7364 12.8109 16.2418 13.2448 15.7609 13.6972C15.6929 13.7602 15.6243 13.8226 15.5554 13.8846C15.092 14.3036 14.6529 14.7466 14.2126 15.1897C14.0778 15.3254 13.9426 15.4608 13.8075 15.5962C13.7206 15.6834 13.6338 15.7707 13.547 15.8579C13.5071 15.8979 13.4672 15.9378 13.4261 15.979C13.2204 16.1864 13.0217 16.3972 12.8319 16.6195C12.7244 16.7448 12.6119 16.8649 12.4997 16.9859C12.2928 17.2108 12.0971 17.4424 11.9059 17.681C11.7987 17.8128 11.6889 17.9417 11.5779 18.0703C11.3059 18.3852 11.0469 18.7076 10.797 19.0404C10.7121 19.1528 10.6263 19.2644 10.5405 19.3761C10.1732 19.8551 9.81498 20.3373 9.48042 20.84C9.412 20.9428 9.34309 21.0452 9.27415 21.1476C8.1729 22.7889 7.21233 24.5097 6.34074 26.284C6.20953 26.5508 6.07673 26.8139 5.92551 27.0699C5.03932 26.2613 4.7463 24.2481 4.51978 23.1275C4.50883 23.0736 4.49788 23.0196 4.4866 22.9639C4.1738 21.3285 4.16104 19.449 4.51978 17.8224C4.52991 17.7731 4.54004 17.7238 4.55048 17.6731C4.79063 16.5122 5.1593 15.3813 5.68314 14.3181C5.70376 14.2761 5.72438 14.2341 5.74563 14.1908C6.04295 13.5908 6.37209 13.0212 6.74956 12.4686C6.77942 12.4246 6.77942 12.4246 6.80989 12.3796C7.42335 11.4791 8.14317 10.6781 8.90663 9.9043C8.94862 9.8615 8.99061 9.8187 9.03387 9.7746C9.32367 9.48326 9.62834 9.2209 9.9488 8.96434C10.0115 8.91213 10.0741 8.85974 10.1364 8.80712C13.4131 6.06821 17.584 4.24276 22.8868 2.42662C22.9854 2.39467 23.084 2.36247 23.1825 2.33019C24.7576 1.81494 26.3618 1.38271 27.9809 1.03101C28.043 1.01733 28.1051 1.00365 28.1691 0.98956C28.4813 0.922534 28.7757 0.865316 29.0958 0.884994Z" fill="#00723F"/>
<path d="M28.4788 22.4608C28.4628 22.4929 28.4468 22.525 28.4303 22.5581C28.3111 22.5964 28.1941 22.6288 28.0728 22.6587C28.0359 22.6682 27.9989 22.6777 27.9609 22.6874C27.8809 22.7079 27.8009 22.7282 27.7209 22.7484C27.5079 22.8023 27.2954 22.8577 27.0829 22.9132C27.04 22.9243 26.9972 22.9355 26.9531 22.947C26.3387 23.1082 25.7317 23.2926 25.1258 23.4831C25.0747 23.4991 25.0747 23.4991 25.0226 23.5154C21.4307 24.6402 17.9953 26.1285 14.8722 28.2538C14.8148 28.2923 14.7573 28.3308 14.6999 28.3692C13.9633 28.8658 13.253 29.4027 12.5812 29.9843C12.4431 30.1032 12.3021 30.2177 12.16 30.3319C11.9691 30.4874 11.7927 30.6494 11.6234 30.8282C11.5333 30.9173 11.4413 30.9992 11.3453 31.0817C11.091 31.3029 10.8546 31.5412 10.6171 31.7801C10.573 31.8241 10.529 31.868 10.4836 31.9133C10.2619 32.1357 10.0467 32.3605 9.8424 32.599C9.74201 32.7161 9.63736 32.829 9.53284 32.9424C9.29374 33.2054 9.06795 33.4768 8.84643 33.7547C8.82609 33.78 8.80574 33.8053 8.78478 33.8313C7.38003 35.577 6.28489 37.5297 5.54196 39.6451C5.33726 39.6177 5.16957 39.57 4.98198 39.4841C4.90305 39.4482 4.90305 39.4482 4.82253 39.4117C4.73665 39.3721 4.73665 39.3721 4.64903 39.3317C4.58754 39.3037 4.52604 39.2757 4.46452 39.2478C4.32982 39.1866 4.1952 39.1251 4.06062 39.0636C3.74712 38.9205 3.43281 38.7792 3.11856 38.6378C2.95242 38.563 2.78637 38.488 2.62039 38.4129C2.23519 38.2386 1.84953 38.0658 1.46169 37.8976C1.36341 37.8546 1.26516 37.8116 1.16692 37.7686C1.10566 37.742 1.04429 37.7156 0.982794 37.6895C0.899178 37.654 0.815955 37.6176 0.732759 37.5811C0.686345 37.5612 0.639931 37.5413 0.592111 37.5208C0.488075 37.4545 0.488075 37.4545 0.444748 37.3584C0.436153 37.1975 0.517691 37.0763 0.594377 36.9403C0.620528 36.8928 0.620528 36.8928 0.647208 36.8443C1.68627 34.9865 3.06945 33.3589 4.56399 31.8562C4.60674 31.8131 4.64949 31.7701 4.69354 31.7257C4.93614 31.4833 5.18362 31.2508 5.44477 31.0286C5.47065 31.0062 5.49653 30.9839 5.5232 30.9608C5.92472 30.6138 6.33649 30.2814 6.75684 29.9576C6.7858 29.9353 6.81475 29.9129 6.84459 29.8898C7.76783 29.179 8.73205 28.5279 9.72114 27.913C9.75364 27.8927 9.78613 27.8723 9.81961 27.8514C10.3582 27.5151 10.9174 27.2163 11.4769 26.917C11.5984 26.8517 11.7194 26.7856 11.8402 26.719C15.1199 24.9272 18.8269 23.7565 22.696 22.9963C22.7446 22.9868 22.7446 22.9868 22.7942 22.9772C24.6412 22.6196 26.5975 22.4181 28.4788 22.4608Z" fill="#01723F"/>
<path d="M31.3631 23.1926C31.2941 23.2168 31.2941 23.2168 31.2237 23.2415C30.2139 23.5962 29.2209 23.9701 28.2444 24.4097C28.1585 24.4482 28.1585 24.4482 28.0709 24.4873C27.3366 24.8168 26.62 25.1677 25.9194 25.5638C25.8208 25.6196 25.7219 25.6746 25.6228 25.7294C23.6135 26.8523 21.6496 28.3447 20.1554 30.1059C20.0962 30.1739 20.0962 30.1739 20.0359 30.2434C17.8537 32.7655 16.5806 35.7608 16.2084 39.0639C16.2036 39.1031 16.1989 39.1424 16.194 39.1828C16.1453 39.6348 16.148 40.0886 16.1474 40.5427C16.1473 40.6099 16.1473 40.6099 16.1471 40.6785C16.1462 41.6435 16.2057 42.6029 16.2835 43.5645C16.3009 43.7853 16.3089 44.0029 16.3058 44.2245C16.1469 44.278 16.0687 44.2711 15.9169 44.2022C15.8774 44.1846 15.8378 44.1671 15.7971 44.149C15.7529 44.1287 15.7087 44.1084 15.6632 44.0875C15.5612 44.042 15.4593 43.9965 15.3573 43.951C15.2996 43.925 15.2419 43.899 15.1824 43.8723C14.9706 43.7773 14.758 43.6841 14.5453 43.5912C14.5058 43.5739 14.4663 43.5566 14.4256 43.5388C14.3433 43.5028 14.2609 43.4668 14.1786 43.4309C13.4099 43.0945 12.6421 42.7559 11.8745 42.417C11.8101 42.3886 11.8101 42.3886 11.7444 42.3596C11.1692 42.1056 10.5943 41.8509 10.0198 41.5955C10.0663 41.1328 10.0663 41.1328 10.1201 40.9316C10.1306 40.8922 10.1411 40.8528 10.1519 40.8123C10.1636 40.7705 10.1753 40.7287 10.1873 40.6857C10.2062 40.6176 10.2062 40.6176 10.2255 40.5481C10.6508 39.0501 11.2251 37.6332 11.9202 36.2401C11.9491 36.1821 11.9491 36.1821 11.9786 36.1229C12.5958 34.8941 13.3894 33.7652 14.2341 32.6834C14.3046 32.5931 14.3745 32.5024 14.4444 32.4115C15.0727 31.5987 15.7637 30.8394 16.4885 30.1119C16.5225 30.0778 16.5565 30.0436 16.5915 30.0084C16.8132 29.7876 17.043 29.5795 17.2804 29.3756C17.3315 29.3305 17.3825 29.2854 17.4334 29.2402C17.9136 28.8187 18.4222 28.4388 18.9372 28.0611C18.9754 28.0329 19.0137 28.0047 19.0531 27.9756C20.1456 27.1703 21.3008 26.4671 22.4944 25.8216C22.5334 25.8003 22.5723 25.7791 22.6125 25.7572C23.3034 25.3813 24.0111 25.0557 24.7359 24.7505C24.7728 24.7348 24.8097 24.719 24.8477 24.7027C26.6881 23.9204 28.7037 23.4665 30.6778 23.1987C30.748 23.189 30.748 23.189 30.8195 23.1792C30.8626 23.1737 30.9058 23.1682 30.9502 23.1626C30.9878 23.1578 31.0253 23.1529 31.064 23.148C31.1736 23.1437 31.2587 23.1609 31.3631 23.1926Z" fill="#01723F"/>
</svg>
