<svg width="94" height="44" viewBox="0 0 94 44" fill="none" xmlns="http://www.w3.org/2000/svg">
<path d="M28.6516 0.00393071C29.1314 1.84891 29.3117 3.72012 29.3035 5.62191C29.303 5.73398 29.3027 5.84604 29.3025 5.9581C29.2995 7.04978 29.2744 8.12456 29.0879 9.20271C29.0756 9.27617 29.0632 9.34962 29.0509 9.42308C28.8923 10.3546 28.6893 11.2687 28.4093 12.1716C28.3963 12.2145 28.3833 12.2573 28.37 12.3015C28.071 13.2835 27.6725 14.2394 27.1957 15.1478C27.1476 15.2405 27.1014 15.334 27.0554 15.4278C26.4942 16.554 25.7388 17.5922 24.8707 18.4988C24.8393 18.532 24.8078 18.5651 24.7754 18.5993C22.7104 20.7668 20.1602 21.4334 17.3384 22.0882C14.5492 22.7356 11.7377 23.4914 9.12536 24.6871C8.96385 24.7609 8.80208 24.8226 8.63211 24.8747C8.65876 24.6757 8.70171 24.5147 8.7887 24.3342C8.81127 24.287 8.83384 24.2398 8.8571 24.1912C8.88183 24.1407 8.90656 24.0902 8.93204 24.0382C8.97091 23.9581 8.97091 23.9581 9.01057 23.8764C9.0938 23.7059 9.17785 23.5358 9.26226 23.3659C9.28914 23.3117 9.31601 23.2576 9.34371 23.2018C9.93216 22.023 10.5822 20.8863 11.3466 19.8129C11.3721 19.7769 11.3977 19.7409 11.424 19.7038C11.6065 19.4469 11.7911 19.1916 11.9768 18.9369C12.0051 18.8979 12.0334 18.859 12.0626 18.8189C12.5185 18.1931 12.978 17.5717 13.4698 16.9737C13.5398 16.8886 13.6093 16.8032 13.6785 16.7174C13.9394 16.3939 14.2091 16.0789 14.4815 15.7651C14.6103 15.6166 14.7377 15.4669 14.8647 15.3168C15.1472 14.9833 15.4389 14.6599 15.7364 14.3398C15.8463 14.2211 15.9549 14.1013 16.0637 13.9816C16.981 12.9765 16.981 12.9765 17.3997 12.5701C17.4823 12.4848 17.5576 12.3986 17.6339 12.3079C17.9265 11.9715 18.2468 11.6609 18.5614 11.3456C18.6317 11.2749 18.702 11.2043 18.7723 11.1336C18.9192 10.9861 19.0662 10.8386 19.2132 10.6912C19.4009 10.5031 19.5883 10.3147 19.7756 10.1263C19.9207 9.98053 20.0658 9.83488 20.2109 9.68925C20.2801 9.61988 20.3491 9.55048 20.4182 9.48103C21.0567 8.83914 21.0567 8.83914 21.3555 8.58439C21.4532 8.50068 21.5437 8.41101 21.6336 8.31903C21.6678 8.28434 21.7019 8.24964 21.7372 8.21389C21.7715 8.17882 21.8058 8.14375 21.8411 8.10762C22.07 7.87358 22.3015 7.64825 22.5492 7.43428C22.691 7.30896 22.8236 7.17508 22.956 7.0399C22.982 7.01358 23.008 6.98726 23.0348 6.96015C23.0975 6.8966 23.1601 6.8329 23.2226 6.76917C22.1604 7.44101 21.1335 8.16675 20.1203 8.91068C20.0818 8.93893 20.0433 8.96717 20.0036 8.99626C19.5498 9.32952 19.0984 9.66523 18.6547 10.0121C18.5563 10.0888 18.4576 10.1651 18.3588 10.2413C17.968 10.5438 17.5833 10.8509 17.2089 11.1735C17.0751 11.2882 16.9396 11.4003 16.8029 11.5115C16.2922 11.9298 15.7977 12.3637 15.3167 12.8161C15.2487 12.8792 15.1801 12.9416 15.1112 13.0035C14.6479 13.4225 14.2088 13.8655 13.7685 14.3086C13.6336 14.4443 13.4984 14.5797 13.3633 14.7152C13.2765 14.8024 13.1896 14.8896 13.1028 14.9769C13.0629 15.0168 13.023 15.0568 12.9819 15.0979C12.7762 15.3054 12.5775 15.5162 12.3877 15.7384C12.2803 15.8637 12.1678 15.9839 12.0555 16.1048C11.8486 16.3297 11.653 16.5613 11.4617 16.7999C11.3545 16.9317 11.2448 17.0607 11.1337 17.1892C10.8618 17.5041 10.6027 17.8265 10.3528 18.1594C10.2679 18.2717 10.1822 18.3834 10.0963 18.495C9.729 18.974 9.37081 19.4562 9.03625 19.9589C8.96783 20.0617 8.89892 20.1641 8.82998 20.2666C7.72872 21.9078 6.76815 23.6287 5.89656 25.4029C5.76535 25.6698 5.63256 25.9328 5.48133 26.1888C4.59515 25.3802 4.30213 23.367 4.0756 22.2465C4.06465 22.1925 4.0537 22.1385 4.04242 22.0829C3.72962 20.4474 3.71687 18.5679 4.0756 16.9414C4.08573 16.8921 4.09586 16.8428 4.1063 16.792C4.34646 15.6311 4.71512 14.5003 5.23897 13.4371C5.25959 13.3951 5.28021 13.353 5.30145 13.3098C5.59878 12.7097 5.92791 12.1402 6.30538 11.5876C6.33525 11.5435 6.33525 11.5435 6.36571 11.4986C6.97917 10.5981 7.699 9.797 8.46245 9.02324C8.50444 8.98044 8.54643 8.93764 8.58969 8.89354C8.8795 8.6022 9.18416 8.33984 9.50463 8.08328C9.56734 8.03106 9.6299 7.97867 9.69227 7.92605C12.9689 5.18714 17.1398 3.36169 22.4426 1.54556C22.5413 1.51361 22.6398 1.48141 22.7383 1.44913C24.3134 0.933874 25.9176 0.501651 27.5367 0.149943C27.5988 0.136266 27.6609 0.122589 27.7249 0.108497C28.0371 0.0414708 28.3315 -0.0157477 28.6516 0.00393071Z" fill="#00723F"/>
<path d="M28.0347 21.5797C28.0187 21.6118 28.0027 21.644 27.9861 21.6771C27.8669 21.7153 27.75 21.7477 27.6287 21.7777C27.5918 21.7871 27.5548 21.7966 27.5168 21.8063C27.4368 21.8268 27.3568 21.8472 27.2768 21.8673C27.0638 21.9212 26.8513 21.9766 26.6388 22.0321C26.5959 22.0433 26.5531 22.0544 26.5089 22.066C25.8946 22.2271 25.2876 22.4115 24.6817 22.602C24.6306 22.618 24.6306 22.618 24.5785 22.6343C20.9866 23.7591 17.5512 25.2474 14.4281 27.3727C14.3707 27.4112 14.3132 27.4497 14.2557 27.4882C13.5192 27.9847 12.8089 28.5216 12.1371 29.1032C11.9989 29.2221 11.858 29.3366 11.7159 29.4508C11.525 29.6063 11.3486 29.7683 11.1793 29.9471C11.0892 30.0362 10.9971 30.1181 10.9012 30.2006C10.6469 30.4218 10.4105 30.6601 10.173 30.899C10.1289 30.943 10.0849 30.987 10.0394 31.0323C9.81781 31.2546 9.60254 31.4795 9.39828 31.718C9.29789 31.835 9.19324 31.948 9.08871 32.0613C8.84962 32.3243 8.62382 32.5957 8.40231 32.8737C8.38196 32.8989 8.36162 32.9242 8.34066 32.9502C6.93591 34.696 5.84076 36.6486 5.09784 38.7641C4.89313 38.7366 4.72545 38.6889 4.53786 38.603C4.45893 38.5672 4.45893 38.5672 4.37841 38.5306C4.29252 38.491 4.29252 38.491 4.20491 38.4507C4.14342 38.4226 4.08192 38.3947 4.0204 38.3667C3.8857 38.3055 3.75108 38.2441 3.6165 38.1826C3.30299 38.0395 2.98868 37.8981 2.67443 37.7567C2.5083 37.6819 2.34225 37.6069 2.17626 37.5318C1.79106 37.3576 1.40541 37.1847 1.01756 37.0165C0.91929 36.9735 0.821041 36.9305 0.722801 36.8875C0.661539 36.8609 0.600163 36.8345 0.538671 36.8084C0.455055 36.7729 0.371833 36.7365 0.288637 36.7001C0.242223 36.6801 0.195809 36.6602 0.147989 36.6397C0.0439529 36.5734 0.0439529 36.5734 0.000625431 36.4773C-0.00796972 36.3164 0.0735686 36.1952 0.150255 36.0592C0.176406 36.0117 0.176406 36.0117 0.203085 35.9632C1.24215 34.1055 2.62533 32.4778 4.11987 30.9751C4.16262 30.9321 4.20537 30.889 4.24942 30.8446C4.49202 30.6022 4.7395 30.3697 5.00065 30.1475C5.02653 30.1252 5.05241 30.1028 5.07907 30.0797C5.4806 29.7327 5.89237 29.4003 6.31272 29.0766C6.34168 29.0542 6.37063 29.0318 6.40047 29.0088C7.32371 28.2979 8.28793 27.6468 9.27702 27.032C9.30951 27.0116 9.34201 26.9913 9.37549 26.9703C9.91404 26.634 10.4732 26.3352 11.0328 26.0359C11.1543 25.9706 11.2753 25.9045 11.396 25.8379C14.6758 24.0461 18.3827 22.8754 22.2519 22.1152C22.3005 22.1057 22.3005 22.1057 22.3501 22.0961C24.1971 21.7385 26.1533 21.537 28.0347 21.5797Z" fill="#01723F"/>
<path d="M30.919 22.3116C30.85 22.3357 30.85 22.3357 30.7796 22.3604C29.7698 22.7151 28.7768 23.089 27.8003 23.5287C27.7144 23.5671 27.7144 23.5671 27.6268 23.6063C26.8926 23.9357 26.1759 24.2866 25.4754 24.6828C25.3768 24.7385 25.2778 24.7936 25.1787 24.8483C23.1694 25.9713 21.2055 27.4636 19.7113 29.2248C19.6521 29.2929 19.6521 29.2929 19.5918 29.3623C17.4096 31.8844 16.1365 34.8798 15.7643 38.1828C15.7595 38.2221 15.7548 38.2613 15.7499 38.3017C15.7012 38.7537 15.7039 39.2075 15.7034 39.6616C15.7032 39.7288 15.7032 39.7288 15.703 39.7974C15.7021 40.7625 15.7616 41.7218 15.8394 42.6834C15.8568 42.9043 15.8648 43.1218 15.8617 43.3434C15.7028 43.397 15.6246 43.39 15.4728 43.3211C15.4333 43.3036 15.3937 43.286 15.353 43.2679C15.3088 43.2476 15.2646 43.2274 15.2191 43.2065C15.1172 43.1609 15.0152 43.1154 14.9132 43.0699C14.8555 43.044 14.7978 43.018 14.7383 42.9912C14.5265 42.8962 14.3139 42.8031 14.1012 42.7101C14.0617 42.6928 14.0222 42.6756 13.9815 42.6578C13.8992 42.6218 13.8168 42.5858 13.7345 42.5498C12.9658 42.2135 12.198 41.8749 11.4304 41.536C11.366 41.5075 11.366 41.5075 11.3003 41.4785C10.7251 41.2246 10.1503 40.9698 9.57568 40.7144C9.62224 40.2517 9.62224 40.2517 9.676 40.0505C9.6865 40.0111 9.69701 39.9718 9.70783 39.9312C9.7195 39.8894 9.73117 39.8477 9.74319 39.8046C9.7621 39.7365 9.7621 39.7365 9.7814 39.667C10.2067 38.1691 10.781 36.7522 11.4761 35.3591C11.505 35.301 11.505 35.301 11.5345 35.2418C12.1518 34.0131 12.9453 32.8841 13.7901 31.8023C13.8605 31.712 13.9305 31.6213 14.0003 31.5305C14.6286 30.7176 15.3196 29.9584 16.0445 29.2309C16.0784 29.1967 16.1124 29.1626 16.1474 29.1274C16.3691 28.9065 16.5989 28.6984 16.8363 28.4945C16.8874 28.4495 16.9384 28.4043 16.9893 28.3591C17.4695 27.9377 17.9781 27.5577 18.4931 27.18C18.5313 27.1518 18.5696 27.1236 18.609 27.0945C19.7015 26.2892 20.8567 25.586 22.0503 24.9405C22.0893 24.9193 22.1282 24.898 22.1684 24.8761C22.8593 24.5002 23.567 24.1746 24.2918 23.8695C24.3287 23.8537 24.3656 23.8379 24.4037 23.8217C26.244 23.0393 28.2596 22.5854 30.2337 22.3177C30.3039 22.308 30.3039 22.308 30.3754 22.2981C30.4186 22.2926 30.4617 22.2872 30.5061 22.2815C30.5437 22.2767 30.5812 22.2719 30.6199 22.2669C30.7295 22.2627 30.8146 22.2798 30.919 22.3116Z" fill="#01723F"/>
<path d="M91.7174 27.7273H89.5535L81.4149 23.1505V21.293H83.1575C85.0214 21.2675 85.9534 20.31 85.9534 18.4205C85.9534 17.8971 85.8321 17.4822 85.5895 17.1758C85.3597 16.8566 85.0214 16.697 84.5746 16.697C84.1788 16.697 83.866 16.8311 83.6362 17.0992C83.4064 17.3545 83.2915 17.6928 83.2915 18.1141C83.2915 18.4078 83.3681 18.8418 83.5213 19.4163H81.4723C81.2808 18.9312 81.1851 18.4141 81.1851 17.8652C81.1851 16.9843 81.4851 16.2694 82.0851 15.7204C82.6851 15.1587 83.4958 14.8778 84.5171 14.8778C85.615 14.8778 86.4896 15.2225 87.1406 15.9119C87.7917 16.6013 88.1173 17.4375 88.1173 18.4205C88.1173 19.6461 87.8045 20.6228 87.1789 21.3504C86.5662 22.0654 85.7299 22.525 84.6703 22.7292L89.5535 25.5634V13.5373H91.7174V15.0885H93.5558V16.9077H91.7174V27.7273Z" fill="#00723F"/>
<path d="M70.0322 22.7292L71.7366 21.7526C71.277 20.9228 70.6067 20.361 69.7258 20.0674V19.1099C69.7258 18.012 70.0833 17.0354 70.7982 16.18C71.5259 15.3246 72.5472 14.897 73.8622 14.897C75.2154 14.897 76.1921 15.3821 76.7921 16.3523V13.5373H79.0135V15.0885H80.8519V16.9077H79.0135V27.7273H76.7921V21.0823L70.0322 25.0655V22.7292ZM71.8706 19.1291C72.5728 19.461 73.1026 20.0036 73.46 20.7568L76.6964 18.8801C76.5687 18.2546 76.2942 17.7567 75.8729 17.3864C75.4644 17.0162 74.9154 16.8311 74.226 16.8311C73.5111 16.8311 72.9366 17.0481 72.5026 17.4822C72.0813 17.9035 71.8706 18.4524 71.8706 19.1291Z" fill="#00723F"/>
<path d="M59.0348 19.3397L60.5285 20.2972V16.9077H55.224L59.0348 19.3397ZM64.5882 16.9077H62.7498V27.7273H60.5285L53.9409 24.7974L53.9601 24.7783V22.5952L56.9666 20.393L56.2006 19.9525L56.2197 19.9142L53.9984 18.5546V16.9077H52.7153V15.0885H64.5882V16.9077ZM60.5285 25.5251V22.4994L58.8241 21.4845L56.2006 23.4952L60.5285 25.5251Z" fill="#00723F"/>
<path d="M53.4889 16.9077H51.6696V27.7273H49.4482V16.9077H47.6099V15.0885H49.4482V14.3416C49.4482 13.0267 49.8504 12.0373 50.6547 11.3734C51.459 10.6968 52.6207 10.3585 54.1399 10.3585C55.8379 10.3585 57.5231 10.6712 59.1955 11.2968V13.0203C57.5103 12.4586 55.8698 12.1777 54.274 12.1777C53.3548 12.1777 52.6909 12.3564 52.2824 12.7139C51.8867 13.0713 51.6888 13.6139 51.6888 14.3416V15.0885H53.4889V16.9077Z" fill="#00723F"/>
<path d="M43.6552 30.9828V32.8212L38.1975 30.8105V29.4125L40.1125 27.3252L42.1615 27.7273L40.3997 29.7572L43.6552 30.9828Z" fill="#00723F"/>
<path d="M47.292 22.5377C47.292 23.7123 46.9729 24.6251 46.3346 25.2762C45.6962 25.9273 44.8473 26.2528 43.7876 26.2528C43.6217 26.2528 43.494 26.2464 43.4046 26.2337V24.2038H43.6153C44.6238 24.2038 45.1281 23.6484 45.1281 22.5377C45.1281 21.8101 44.8536 21.2164 44.3047 20.7568C43.7685 20.2845 43.0344 20.0227 42.1024 19.9717V27.7273H39.9385V27.7082L39.9194 27.7273L34.0595 23.5144V21.293C36.2043 19.4674 38.164 18.3886 39.9385 18.0567V16.9077H32.9297V15.0885H48.3836V16.9077H42.1024V18.0375C43.5195 18.0631 44.7387 18.4908 45.7601 19.3206C46.7814 20.1376 47.292 21.21 47.292 22.5377ZM39.9385 25.3336V20.0674C38.7129 20.4249 37.4044 21.2036 36.0128 22.4037L39.9385 25.3336Z" fill="#00723F"/>
</svg>
