<svg width="635" height="266" viewBox="0 0 635 266" fill="none" xmlns="http://www.w3.org/2000/svg">
<path d="M175.693 0.0241032C178.635 11.3376 179.74 22.8119 179.69 34.4737C179.687 35.1609 179.685 35.8481 179.684 36.5352C179.666 43.2295 179.511 49.82 178.368 56.4312C178.292 56.8817 178.217 57.3321 178.141 57.7826C177.169 63.4946 175.924 69.0998 174.207 74.6367C174.127 74.8995 174.048 75.1622 173.966 75.433C172.132 81.4548 169.689 87.3162 166.765 92.8866C166.47 93.4552 166.187 94.0287 165.905 94.6038C162.463 101.51 157.831 107.876 152.508 113.435C152.315 113.639 152.123 113.842 151.924 114.051C139.261 127.342 123.623 131.43 106.32 135.445C89.2162 139.415 71.9759 144.05 55.9572 151.382C54.9668 151.834 53.9748 152.213 52.9326 152.532C53.096 151.312 53.3594 150.325 53.8928 149.218C54.0312 148.929 54.1696 148.639 54.3123 148.341C54.4639 148.032 54.6155 147.722 54.7718 147.403C55.0101 146.912 55.0101 146.912 55.2533 146.41C55.7637 145.365 56.2791 144.322 56.7967 143.28C56.9615 142.948 57.1263 142.616 57.2961 142.274C60.9045 135.046 64.8906 128.075 69.578 121.493C69.7346 121.273 69.8911 121.052 70.0523 120.824C71.1713 119.249 72.3039 117.683 73.4422 116.121C73.6159 115.883 73.7897 115.644 73.9687 115.398C76.764 111.56 79.5818 107.75 82.5974 104.083C83.0264 103.561 83.453 103.037 83.8769 102.512C85.4768 100.528 87.1311 98.5961 88.8011 96.6719C89.591 95.7612 90.3723 94.8436 91.1509 93.9231C92.883 91.8778 94.6721 89.8948 96.4963 87.9322C97.1702 87.2044 97.8362 86.4695 98.5032 85.7353C104.128 79.5723 104.128 79.5723 106.696 77.0803C107.202 76.5569 107.664 76.0288 108.132 75.4721C109.926 73.4094 111.89 71.5051 113.819 69.5712C114.25 69.1381 114.682 68.7048 115.113 68.2716C116.013 67.3668 116.915 66.4626 117.816 65.5587C118.967 64.4051 120.116 63.2501 121.265 62.0948C122.154 61.2009 123.044 60.3077 123.934 59.4147C124.358 58.9894 124.782 58.5638 125.205 58.1379C129.12 54.2018 129.12 54.2018 130.953 52.6397C131.552 52.1264 132.107 51.5765 132.658 51.0125C132.868 50.7997 133.077 50.587 133.293 50.3678C133.503 50.1527 133.714 49.9377 133.931 49.7161C135.334 48.281 136.754 46.8992 138.272 45.5872C139.142 44.8187 139.955 43.9978 140.767 43.1688C140.926 43.0075 141.086 42.8461 141.25 42.6798C141.635 42.2901 142.018 41.8995 142.402 41.5087C135.888 45.6285 129.591 50.0787 123.379 54.6405C123.142 54.8137 122.906 54.9869 122.663 55.1653C119.88 57.2089 117.112 59.2674 114.392 61.3943C113.788 61.8648 113.182 62.3324 112.577 62.8001C110.181 64.655 107.822 66.5377 105.526 68.5162C104.705 69.2195 103.874 69.9067 103.036 70.589C99.9044 73.1539 96.8719 75.8146 93.9226 78.5886C93.5059 78.9755 93.0853 79.3579 92.6624 79.738C89.8213 82.3071 87.1287 85.0238 84.4288 87.7409C83.6017 88.573 82.7731 89.4034 81.9443 90.2337C81.4118 90.7685 80.8795 91.3034 80.3472 91.8384C80.1025 92.0835 79.8579 92.3285 79.6058 92.581C78.3441 93.8529 77.1261 95.1455 75.962 96.5085C75.3031 97.2766 74.6134 98.0134 73.9252 98.7552C72.6563 100.134 71.4565 101.554 70.284 103.017C69.6263 103.826 68.9535 104.617 68.2726 105.405C66.6049 107.336 65.0164 109.313 63.4839 111.354C62.9634 112.043 62.4375 112.727 61.9113 113.412C59.6588 116.349 57.4623 119.306 55.4108 122.389C54.9912 123.019 54.5687 123.647 54.1459 124.275C47.393 134.339 41.5028 144.892 36.1582 155.771C35.3536 157.408 34.5393 159.021 33.612 160.59C28.1779 155.632 26.381 143.287 24.992 136.416C24.9248 136.085 24.8577 135.754 24.7885 135.413C22.8704 125.384 22.7922 113.859 24.992 103.885C25.0541 103.583 25.1162 103.28 25.1802 102.969C26.6529 95.8505 28.9135 88.916 32.1258 82.3964C32.2522 82.1388 32.3786 81.8812 32.5089 81.6158C34.3321 77.9365 36.3504 74.4438 38.665 71.0553C38.8482 70.7851 38.8482 70.7851 39.035 70.5094C42.7968 64.9876 47.2107 60.0754 51.8922 55.3307C52.1497 55.0683 52.4072 54.8058 52.6725 54.5354C54.4496 52.7489 56.3178 51.1401 58.2829 49.5669C58.6674 49.2467 59.0511 48.9254 59.4336 48.6027C79.5259 31.8077 105.102 20.614 137.619 9.47739C138.224 9.28147 138.828 9.08404 139.432 8.8861C149.091 5.72654 158.928 3.07614 168.856 0.919455C169.237 0.835585 169.618 0.751716 170.01 0.665305C171.925 0.2543 173.73 -0.0965655 175.693 0.0241032Z" fill="white"/>
<path d="M171.91 132.327C171.811 132.524 171.713 132.721 171.612 132.924C170.881 133.159 170.164 133.358 169.42 133.541C169.193 133.599 168.967 133.657 168.733 133.717C168.243 133.843 167.753 133.967 167.262 134.091C165.956 134.421 164.653 134.761 163.349 135.101C163.087 135.17 162.824 135.238 162.554 135.309C158.786 136.297 155.064 137.428 151.349 138.596C151.035 138.694 151.035 138.694 150.716 138.794C128.69 145.691 107.624 154.818 88.4735 167.85C88.1212 168.086 87.7689 168.322 87.4165 168.558C82.9001 171.603 78.5445 174.895 74.425 178.461C73.5778 179.191 72.7133 179.893 71.8421 180.593C70.6714 181.546 69.5898 182.54 68.5514 183.636C67.9991 184.183 67.4348 184.685 66.8462 185.191C65.2871 186.547 63.8375 188.008 62.381 189.474C62.1108 189.743 61.8406 190.013 61.5621 190.291C60.2031 191.654 58.883 193.033 57.6305 194.495C57.0149 195.213 56.3732 195.906 55.7322 196.601C54.2661 198.213 52.8815 199.878 51.5232 201.582C51.3984 201.737 51.2737 201.892 51.1451 202.052C42.5312 212.756 35.8157 224.73 31.2601 237.702C30.0048 237.534 28.9766 237.241 27.8263 236.714C27.3423 236.495 27.3423 236.495 26.8485 236.271C26.3219 236.028 26.3219 236.028 25.7846 235.78C25.4076 235.609 25.0304 235.437 24.6532 235.266C23.8272 234.89 23.0017 234.514 22.1765 234.136C20.254 233.259 18.3267 232.392 16.3997 231.525C15.3809 231.066 14.3627 230.607 13.3449 230.146C10.9829 229.077 8.61802 228.018 6.23972 226.986C5.63711 226.723 5.03464 226.459 4.43223 226.195C4.05657 226.032 3.68022 225.87 3.30315 225.71C2.79041 225.493 2.28009 225.269 1.76993 225.046C1.48532 224.924 1.20071 224.801 0.90747 224.676C0.26952 224.269 0.26952 224.269 0.00383516 223.68C-0.0488705 222.693 0.451124 221.95 0.921365 221.116C1.08172 220.825 1.08172 220.825 1.24532 220.527C7.61687 209.135 16.0986 199.154 25.2631 189.94C25.5253 189.676 25.7874 189.412 26.0576 189.14C27.5452 187.653 29.0627 186.228 30.6641 184.865C30.8228 184.728 30.9815 184.591 31.145 184.45C33.6072 182.322 36.1322 180.284 38.7097 178.298C38.8873 178.161 39.0649 178.024 39.2478 177.882C44.9091 173.524 50.8218 169.531 56.8869 165.761C57.0862 165.636 57.2854 165.511 57.4907 165.383C60.7931 163.32 64.2221 161.488 67.6536 159.653C68.3985 159.252 69.1402 158.847 69.8807 158.439C89.9923 147.451 112.723 140.273 136.449 135.611C136.747 135.553 136.747 135.553 137.051 135.494C148.377 133.301 160.373 132.065 171.91 132.327Z" fill="white"/>
<path d="M189.596 136.815C189.173 136.963 189.173 136.963 188.741 137.114C182.549 139.289 176.46 141.582 170.472 144.278C169.945 144.514 169.945 144.514 169.408 144.754C164.906 146.774 160.511 148.926 156.215 151.355C155.611 151.697 155.004 152.035 154.396 152.37C142.075 159.256 130.033 168.407 120.87 179.207C120.507 179.624 120.507 179.624 120.137 180.05C106.756 195.516 98.949 213.883 96.6666 234.138C96.6375 234.378 96.6085 234.619 96.5786 234.867C96.2799 237.639 96.2963 240.421 96.2931 243.206C96.292 243.618 96.292 243.618 96.2909 244.038C96.2854 249.956 96.6503 255.839 97.1275 261.736C97.2342 263.09 97.2832 264.424 97.2642 265.783C96.2899 266.111 95.8102 266.068 94.8796 265.646C94.637 265.538 94.3944 265.431 94.1445 265.32C93.8736 265.195 93.6027 265.071 93.3237 264.943C92.6985 264.664 92.0732 264.385 91.4479 264.106C91.094 263.946 90.7401 263.787 90.3754 263.623C89.0767 263.04 87.7729 262.469 86.4686 261.899C86.2264 261.793 85.9842 261.687 85.7347 261.578C85.2298 261.358 84.7249 261.137 84.2201 260.916C79.5061 258.854 74.7984 256.777 70.0914 254.699C69.6965 254.525 69.6965 254.525 69.2936 254.347C65.7664 252.79 62.2414 251.228 58.718 249.662C59.0035 246.824 59.0035 246.824 59.3331 245.591C59.3976 245.349 59.462 245.108 59.5284 244.859C59.5999 244.603 59.6715 244.347 59.7452 244.083C59.8612 243.665 59.8612 243.665 59.9795 243.239C62.5875 234.053 66.1092 225.365 70.3715 216.823C70.5487 216.467 70.5487 216.467 70.7296 216.104C74.5146 208.569 79.3809 201.646 84.5606 195.013C84.9927 194.459 85.4216 193.902 85.85 193.346C89.7025 188.361 93.94 183.705 98.3847 179.244C98.593 179.035 98.8013 178.825 99.0159 178.61C100.376 177.255 101.785 175.979 103.24 174.729C103.554 174.453 103.866 174.176 104.179 173.899C107.123 171.314 110.242 168.984 113.4 166.669C113.634 166.495 113.869 166.322 114.11 166.144C120.81 161.206 127.894 156.894 135.213 152.936C135.452 152.805 135.691 152.675 135.937 152.541C140.174 150.236 144.513 148.239 148.958 146.368C149.184 146.271 149.41 146.174 149.643 146.075C160.929 141.277 173.288 138.494 185.394 136.852C185.824 136.793 185.824 136.793 186.263 136.732C186.527 136.699 186.792 136.665 187.064 136.631C187.294 136.601 187.525 136.571 187.762 136.541C188.434 136.515 188.955 136.62 189.596 136.815Z" fill="white"/>
<path d="M621.511 174.466H606.288L549.034 142.269V129.201H561.293C574.405 129.022 580.961 122.286 580.961 108.994C580.961 105.312 580.108 102.393 578.402 100.238C576.785 97.9924 574.405 96.8698 571.262 96.8698C568.478 96.8698 566.278 97.8128 564.661 99.6988C563.044 101.495 562.236 103.875 562.236 106.839C562.236 108.904 562.775 111.958 563.853 115.999H549.438C548.091 112.587 547.417 108.949 547.417 105.087C547.417 98.8905 549.528 93.8612 553.749 89.9994C557.97 86.0477 563.673 84.0719 570.858 84.0719C578.582 84.0719 584.734 86.4968 589.314 91.3465C593.894 96.1962 596.184 102.079 596.184 108.994C596.184 117.616 593.984 124.486 589.583 129.606C585.272 134.635 579.39 137.868 571.936 139.305L606.288 159.243V74.6418H621.511V85.5538H634.443V98.3517H621.511V174.466Z" fill="white"/>
<path d="M468.96 139.305L480.949 132.435C477.716 126.597 473.001 122.645 466.804 120.58V113.844C466.804 106.12 469.319 99.2498 474.348 93.2325C479.467 87.2152 486.652 84.2066 495.903 84.2066C505.422 84.2066 512.293 87.6194 516.514 94.4449V74.6418H532.141V85.5538H545.074V98.3517H532.141V174.466H516.514V127.72L468.96 155.74V139.305ZM481.892 113.979C486.832 116.314 490.559 120.131 493.074 125.429L515.84 112.227C514.942 107.827 513.011 104.324 510.048 101.72C507.174 99.1151 503.312 97.8128 498.462 97.8128C493.433 97.8128 489.391 99.3396 486.338 102.393C483.374 105.357 481.892 109.219 481.892 113.979Z" fill="white"/>
<path d="M391.594 115.46L402.102 122.196V98.3516H364.786L391.594 115.46ZM430.662 98.3516H417.729V174.466H402.102L355.76 153.854L355.895 153.719V138.362L377.045 122.87L371.657 119.771L371.791 119.502L356.164 109.937V98.3516H347.138V85.5537H430.662V98.3516ZM402.102 158.973V137.688L390.113 130.549L371.657 144.694L402.102 158.973Z" fill="white"/>
<path d="M352.581 98.3516H339.783V174.466H324.156V98.3516H311.223V85.5536H324.156V80.2998C324.156 71.0493 326.985 64.0891 332.643 59.4189C338.301 54.659 346.474 52.2791 357.161 52.2791C369.106 52.2791 380.961 54.4794 392.726 58.8801V71.0044C380.871 67.0528 369.33 65.077 358.104 65.077C351.638 65.077 346.968 66.3343 344.094 68.849C341.31 71.3637 339.918 75.1806 339.918 80.2998V85.5536H352.581V98.3516Z" fill="white"/>
<path d="M283.403 197.367V210.3L245.009 196.155V186.32L258.48 171.636L272.895 174.465L260.501 188.745L283.403 197.367Z" fill="white"/>
<path d="M308.987 137.958C308.987 146.22 306.742 152.642 302.251 157.222C297.761 161.802 291.788 164.093 284.334 164.093C283.166 164.093 282.268 164.048 281.64 163.958V149.678H283.122C290.217 149.678 293.764 145.771 293.764 137.958C293.764 132.839 291.833 128.662 287.971 125.429C284.199 122.106 279.035 120.265 272.479 119.906V174.466H257.256V174.331L257.122 174.466L215.899 144.828V129.201C230.987 116.359 244.773 108.77 257.256 106.435V98.3516H207.951V85.5537H316.666V98.3516H272.479V106.3C282.448 106.479 291.025 109.488 298.21 115.326C305.394 121.074 308.987 128.618 308.987 137.958ZM257.256 157.626V120.58C248.635 123.094 239.429 128.573 229.64 137.015L257.256 157.626Z" fill="white"/>
</svg>
